<?xml version="1.0"?>
<svg xmlns="http://www.w3.org/2000/svg" xmlns:xlink="http://www.w3.org/1999/xlink" xmlns:svgjs="http://svgjs.com/svgjs" version="1.1" width="512" height="512" x="0" y="0" viewBox="0 0 512 512" style="enable-background:new 0 0 512 512" xml:space="preserve" class=""><g><g xmlns="http://www.w3.org/2000/svg"><path d="m322.544 0v95.004h94.773z" fill="#272727" data-original="#000000" style="" class=""/><path d="m259.056 256.793h174.48v89.24h-174.48z" transform="matrix(.707 -.707 .707 .707 -111.688 333.365)" fill="#272727" data-original="#000000" style="" class=""/><path d="m418.646 148.328h72.379v89.243h-72.379z" transform="matrix(.707 -.707 .707 .707 -3.291 377.952)" fill="#272727" data-original="#000000" style="" class=""/><path d="m284.381 426.353 10.536-10.528-63.127-63.077-10.536 10.528v63.077z" fill="#272727" data-original="#000000" style="" class=""/><path d="m191.229 456.42v-105.51l226.087-225.91h-124.797v-125h-292.519v512h417.316v-175.98l-120.494 120.4zm-131.665-370.122h138.108v30h-138.108zm0 60h178.139v30h-178.139z" fill="#272727" data-original="#000000" style="" class=""/></g></g></svg>
